<?xml version="1.0" encoding="UTF-8"?><svg id="Layer_1" xmlns="http://www.w3.org/2000/svg" viewBox="0 0 450 231"><path d="M390.44,121.31c-4.66-12.2-23.06-29.31-36.69-29.31h-30c-.11,0-1.5-1.39-1.5-1.5v-46.5h-23v62c-21.43-22.15-56.88-19.11-74.5,5.98-19.75-28.65-60.57-27.23-80,1-6.07-7.95-14.39-15.61-23.96-19.02-1.7-.61-9.91-2.96-11.04-2.96h-29.5v-47h-24v142c.98-.32,2.17,1,2.5,1h21.5v-72h28.5c3.51,0,11.69,6.03,14.02,8.98,1.63,2.06,5.48,9.3,5.48,11.52v51.5h22.5c2.45,0,1.24-10.74,1.51-12.99.57-.66,7.91,5.36,9.33,6.16,21.41,12.24,49.23,6.2,63.17-14.15,20.13,27.33,62.14,27.68,80.01-2.03,6.57,5.8,11.63,13.28,19.6,17.4,38.92,20.14,81.76-19.02,66.08-60.08ZM193.23,161.49c-33.5,11.01-43.99-41.24-12.25-46.25,29.72-4.68,38.97,37.46,12.25,46.25ZM266.61,162.92c-30.92,2.47-34.71-43.25-6.62-47.67,33.73-5.32,37.99,45.16,6.62,47.67ZM328.27,154.47c-2.02-2.45-6.03-10.12-6.03-12.97v-25c0-.27,1.17-.99,1.5-1.5h24c7.5,0,17,7.18,20,14,11.37,25.86-22.34,46.19-39.47,25.47Z"/></svg>