<?xml version="1.0" encoding="UTF-8"?><svg id="Layer_1" xmlns="http://www.w3.org/2000/svg" viewBox="0 0 3646.15 399.51"><defs><style>.cls-1{fill:#6631d3;}</style></defs><path class="cls-1" d="M205.1,200.56c2.93-3,5.06-7.59,7.16-11.3,28.91-51.11,54.62-104.56,84.63-154.97,44.05-74.01,137.19-15.19,110.62,53.53-46.67,83.99-90.92,169.48-138.27,253.09-6.87,12.14-12.72,25.19-23.7,34.22-24.67,20.3-64.91,18.91-85.96-5.94C106.12,277.5,56.7,183.16,5.29,90.19-23.21,20.9,70.68-39.65,115.29,35.29c29.99,50.39,57.41,105.07,85.98,156.63,1.48,2.68,3.11,5.67,3.84,8.65Z"/><path class="cls-1" d="M474.81,125.05c44.81-3.35,76.78,44,62.2,85.01-25.96,48.58-51.38,97.96-78.82,145.81-3.97,6.93-8.24,15.64-13.19,21.75-44.3,54.78-135.01-1.64-97.12-76.97,25.81-51.31,57.39-101.41,84.32-152.29,10.45-13.22,25.53-22.03,42.61-23.31Z"/><path class="cls-1" d="M2649.43,302.32h-35.99v-135.18c0-2.94-3.87-12.45-5.48-15.48-18.87-35.5-71.93-32.67-86.25,4.75-.76,1.97-3.24,9.25-3.24,10.73v135.18h-34.99v-130.19c0-27.84-28.2-48.03-54.48-45.38-18.78,1.89-41.5,21.9-41.5,41.39v134.18h-34.99v-139.17c0-4.29,4.29-16.35,6.14-20.81,24.36-58.56,102.31-70.1,141.33-19.6.76.19,9.08-9.25,11.01-10.95,53.71-47.13,134.05-10.28,138.48,59.29l-.04,131.23Z"/><path class="cls-1" d="M3566.18,45.94v49.88h71.98v35.91h-71.98v122.21c0,3.93,7.03,11.5,10.68,13.29,19.1,9.36,34.6-8.39,33.31-26.75h35.99c.02,48.33-50.02,85.37-92.89,53.29-9.44-7.06-23.08-25.74-23.08-37.82V45.94h35.99Z"/><path class="cls-1" d="M3389.02,90.12c29.83-2.87,55.74,8.04,76.11,29.27.3,1.7-21.16,22.21-24.42,24.34-19.01-16.67-36.33-22.84-61.26-15.28-66.42,20.13-67.82,115.02-1.76,137.99,24.57,8.55,44.74,2.72,63.03-14.82l24.46,24.26c-60.89,65.3-166.25,13.41-171.92-69.84-3.85-56.5,38.51-110.41,95.76-115.92Z"/><path class="cls-1" d="M533.8.34c79.66-7.49,89.16,120.54,11.69,127.39-82.07,7.25-90.61-119.97-11.69-127.39Z"/><rect class="cls-1" x="2249.53" y=".04" width="35.99" height="302.28"/><path class="cls-1" d="M1376.77,98.81v21.95h-83.48c-.39,0-6.25,2.35-7.18,2.81-26.32,13.14-22.07,61.36,8.44,65.76,19.98,2.88,37.46-3.41,57.9,5.07,43.46,18.03,42.66,88.41-1.42,105.69-3.11,1.22-12.94,4.23-15.76,4.23h-82.48v-20.95h80.48c36.74,0,44.31-69.34-2.96-72.87-23.6-1.76-42.5,5.48-63-10.96-37.41-30-18.97-100.74,31.97-100.74h77.48Z"/><polygon class="cls-1" points="772.44 101.8 847.93 276.38 924.4 101.8 946.89 101.8 858.45 304.39 836.81 303.7 749.94 101.8 772.44 101.8"/><path class="cls-1" d="M1466.75,49.93v52.87h76.98v19.45c0,.11-1.39,1.5-1.5,1.5h-75.48v136.18c0,1.63,3.57,9.41,4.75,11.22,17.34,26.5,57.83,14.63,59.23-16.71h20.99c-.68,45.6-55.19,70.36-89.45,38.88-6.56-6.03-16.52-22.59-16.52-31.4V49.93h20.99Z"/><path class="cls-1" d="M2889.88,108.76c-68.92-43.44-158.2.36-166.35,80.46l-.13,209.87h35.99v-118.72c55.7,49.34,143.24,29.03,172.13-39.23,20.53-48.51,2.64-104.47-41.64-132.38ZM2863.4,264.94c-59.89,28.58-123.49-30.18-99.48-92.29,8.56-22.15,32.32-41.77,56.25-44.63,85.43-10.24,116,102.2,43.24,136.92Z"/><path class="cls-1" d="M3053.01,106.98c-66.45,41.3-67.82,139.4-1.61,181.79,42.17,27,93.78,22.24,131.88-9.39v22.95h35.99l.04-109.28c-5.35-81.59-95.46-130.09-166.3-86.06ZM3178.03,224.76c-22.88,59.74-107.04,61.99-133.57,4.1-21.33-46.54,10.67-99.59,61.64-102.81,53.08-3.35,90.86,49.28,71.93,98.71Z"/><path class="cls-1" d="M2072.58.04h-20.99v137.67c-2.36.62-1.69-.6-2.29-1.28-85.07-96.02-226.54-1.92-180.52,107.38,43.28,102.8,197.6,76.36,203.85-38.72l-.05-205.06ZM2046.37,230.77c-23.24,65.23-111.7,76.46-150.37,18.81-35.77-53.33-1.18-125.42,62.41-131.53,61.11-5.87,108.6,54.78,87.96,112.72Z"/><path class="cls-1" d="M1631.69,123.24c-80.81,69.23-16.8,203.95,85.22,184.8,8.49-1.59,35.51-13.19,39.32-20.69.74-1.45.23-1.46-.5-2.51-3-4.35-10.14-8.94-13.56-13.42-45.98,42.15-119.25-.5-125.47-56.88h189.95c9.61-94.27-101.71-154.05-174.96-91.29ZM1784.16,193.58h-165.95c-1.99-.49-.38-6.27-.04-8.02,14.67-74.34,116.6-90.92,155.91-24.82,4.18,7.03,11.12,22.84,11.18,30.79,0,.85-.4,2.05-1.1,2.05Z"/><path class="cls-1" d="M1190.81,197.09c-4.4-66.83-69.79-113.53-134.72-95.54-69.74,19.31-99.99,101.52-59.45,161.61,30.74,45.56,102.68,65.37,144.17,22.72l-14.62-14.39c-46.06,41.54-120.39.32-125.33-56.94h188.45c2.24,0,1.65-14.97,1.49-17.45ZM1000.87,193.58c1.76-24.65,17.49-48.17,38.07-61.27,53.11-33.8,122.21-.08,129.88,61.27h-167.95Z"/></svg>